# xmcd
#
# Track frame offsets:
#	150
#	8902
#	18712
#	37438
#	52326
#	67001
#	82697
#	99829
#	119952
#	140332
#	155150
#	173918
#	192535
#	207917
#	222363
#	235253
#	250028
#	266380
#	286433
#	302989
#
# Disc length: 4290 seconds
#
# Revision: 0
# Processed by: cddbd v1.5.2PL0 Copyright (c) Steve Scherf et al.
# Submitted via: dBpowerAMP V4.0
#
DISCID=3610c014
DTITLE=Vários - Festchê 2 - CD1
DYEAR=2004
DGENRE=Gauchao
TTITLE0=Abertura
TTITLE1=Omair Trindade - Memória dos Tempos
TTITLE2=Os Serranos - Nossa Vaneira
TTITLE3=Tchê Barbaridade - Lá Vem o Tchê
TTITLE4=Os Monarcas - To no Rodeio
TTITLE5=Mano Lima - Mal Parido
TTITLE6=Chiquito e Bordoneio - Remelexo
TTITLE7=César Oliveira e Rogério Melo - Roçando as Viria
TTITLE8=Grupo Rodeio - A Voz do Rio Grande
TTITLE9=Walther Moraes - Bochincho
TTITLE10=Grupo Reponte - Tribo da Bombacha
TTITLE11=Délcio Tavares - Cavalo Preto
TTITLE12=Quero-Quero - Ela Chorou de Amor
TTITLE13=Os Mateadores - Romance de Um Peão Pasteiro
TTITLE14=Grupo Querência - Festa Gaúcha
TTITLE15=Luiz Carlos Borges - O Revorve do Tropeiro
TTITLE16=Os Galponneros - É o Pegadão
TTITLE17=Balanço do Tchê - Andei Falando com as Estrelas
TTITLE18=Tchê Chaleira - Vem cá Guria
TTITLE19=Renato Borghetti - Sem Vergonha
EXTD=
EXTT0=
EXTT1=
EXTT2=
EXTT3=
EXTT4=
EXTT5=
EXTT6=
EXTT7=
EXTT8=
EXTT9=
EXTT10=
EXTT11=
EXTT12=
EXTT13=
EXTT14=
EXTT15=
EXTT16=
EXTT17=
EXTT18=
EXTT19=
PLAYORDER=
